<?xml version="1.0" encoding="UTF-8"?>
<svg id="KathOnlyTextDark" data-name="Layer 2" xmlns="http://www.w3.org/2000/svg" viewBox="0 0 1029.583984375 328.81640625" width="1000" height="75">
  <defs>
    <style>
      .cls-1 {
        fill: #42464F;
        stroke-width: 0px;
      }
    </style>
  </defs>
  <g id="Kath_Text" data-name="Kath Text">
    <g>
      <g>
        <path class="cls-1" d="M5.0002097994,5.1866820593h23.4846253205c14.1878507533,0,23.0739221194,9.5581294502,23.0739221194,24.828737038v127.5413075717L156.8475348511,18.7024765088c6.0858449267-9.1474298099,15.7933155736-13.4784571475,26.7328958237-13.4784571475h40.510054058l-126.3465388312,165.8111671256,135.6433205197,152.7807362386h-44.1316797782c-10.118173848,0-18.6308935577-3.9203383792-25.5007862204-11.7609866523l-112.1960396227-125.786486422v112.7187298051c0,15.233277407-8.9234122288,24.7913988458-23.0739221194,24.7913988458H5.0002097994V5.1866820593Z"/>
        <path class="cls-1" d="M244.5126953125,328.81640625h-55.2573242188c-11.5874023438,0-21.4321289062-4.53125-29.2612304688-13.466796875l-103.435546875-115.9638671875v99.6015625c0,18.09765625-11.01953125,29.791015625-28.0737304688,29.791015625H0V.1865234375h28.4848632812c17.0541992188,0,28.0737304688,11.708984375,28.0737304688,29.8291015625v112.671875L152.7734375,15.7998046875C159.5205078125,5.7543945312,170.4545898438.2241210938,183.5805664062.2241210938h50.6059570312L104.21484375,170.79296875l140.2978515625,158.0234375ZM46.55859375,173.1513671875l120.927734375,135.5751953125c5.9580078125,6.7998046875,13.0693359375,10.08984375,21.7690429688,10.08984375h33.0063476562L91.2734375,171.27734375,213.994140625,10.2236328125h-30.4135742188c-6.8823242188,0-16.3852539062,1.9521484375-22.5703125,11.248046875l-.1782226562.251953125L46.55859375,172.42578125V30.015625c0-12.6015625-6.5874023438-19.8291015625-18.0737304688-19.8291015625H10v308.591796875h18.4848632812c11.3173828125,0,18.0737304688-7.3984375,18.0737304688-19.791015625v-125.8359375Z"/>
      </g>
      <g>
        <path class="cls-1" d="M416.5598828698,5.1493456475h14.5985646364l147.404307172,318.5919167168h-33.192099528c-11.7236422289,0-21.0577540981-6.085830684-26.3222068653-17.3987697118l-19.0416110015-43.0862638065h-151.8473250517l-19.4522857172,43.0862638065c-4.8537495662,11.3129390278-14.561220213,17.3987981972-26.3222068653,17.3987981972h-32.8187407504L416.5598828698,5.1493456475ZM484.9975694459,225.807748099l-61.1570907122-140.1610272462-60.7463875112,140.1610272462h121.9034782234Z"/>
        <path class="cls-1" d="M586.3857421875,328.7412109375h-41.0151367188c-13.80859375,0-24.7666015625-7.205078125-30.85546875-20.2890625l-17.7651367188-40.1962890625h-145.3618164062l-18.1240234375,40.14453125c-5.5317382812,12.8955078125-16.8002929688,20.3408203125-30.87890625,20.3408203125h-40.6323242188L413.3603515625.1494140625h20.994140625l152.03125,328.591796875ZM344.9311523438,258.255859375h158.3325195312l20.3579101562,46.0654296875c4.376953125,9.4033203125,11.9116210938,14.419921875,21.7490234375,14.419921875h25.3696289062L427.962890625,10.1494140625h-8.203125l-142.3798828125,308.591796875h25.0053710938c10.03515625,0,17.7509765625-5.103515625,21.7270507812-14.3701171875l20.8188476562-46.115234375ZM492.6342773438,230.8076171875h-137.15625l68.3466796875-157.69921875,68.8095703125,157.69921875ZM370.7104492188,220.8076171875h106.650390625l-53.5048828125-122.623046875-53.1455078125,122.623046875Z"/>
      </g>
      <g>
        <path class="cls-1" d="M606.9011046402,46.9288288073h-87.479326063v-16.9880843141c0-15.2332702857,8.9234086681-24.8287379281,23.0738971946-24.8287379281h199.2272860151v16.9880843141c0,14.7852315629-9.2967959313,24.8287379282-23.0738971946,24.8287379282h-65.1894623617v252.0210062257c0,15.233277407-9.3341118692,24.7913988458-23.0738971946,24.7913988458h-23.4846003957V46.9288288073Z"/>
        <path class="cls-1" d="M630.3857421875,328.7412109375h-28.4848632812V51.9287109375h-87.4790039062v-21.98828125c0-18.1201171875,11.01953125-29.8286132812,28.0737304688-29.8286132812h204.2275390625v21.9877929688c0,17.5625-11.5444335938,29.8291015625-28.07421875,29.8291015625h-60.189453125v247.021484375c0,17.8193359375-11.2817382812,29.791015625-28.0737304688,29.791015625ZM611.9008789062,318.7412109375h18.4848632812c11.1484375,0,18.0737304688-7.5830078125,18.0737304688-19.791015625V41.9287109375h70.189453125c10.9794921875,0,18.07421875-7.783203125,18.07421875-19.8291015625v-11.98828125h-194.2275390625c-11.3173828125,0-18.0737304688,7.4130859375-18.0737304688,19.8291015625v11.98828125h87.4790039062v276.8125Z"/>
      </g>
      <g>
        <path class="cls-1" d="M767.8585319916,299.2485334494V5h23.8953035968c14.5611917276,0,22.6632509645,8.6993919772,22.6632509645,24.380702766v119.2526152349h163.6083401894V5h23.4846573666c14.9719518996,0,23.0738971946,8.6993919772,23.0738971946,24.380702766v294.248526328h-23.8953035968c-14.5611917276,0-22.6632509645-8.6993990986-22.6632509645-24.3806956447v-108.7984056686h-163.6083401894v133.1791013133h-25.5008004632c-13.3664550332,0-21.0577540981-8.6993990986-21.0577540981-24.3806956447Z"/>
        <path class="cls-1" d="M1029.583984375,328.62890625h-28.8955078125c-17.3217773438,0-27.6630859375-10.9833984375-27.6630859375-29.380859375v-103.7978515625h-153.6083984375v133.1787109375h-30.5004882812c-16.3168945312,0-26.0581054688-10.9833984375-26.0581054688-29.380859375V0h28.8955078125c17.3217773438,0,27.6630859375,10.9833984375,27.6630859375,29.380859375v114.2529296875h153.6083984375V0h28.4848632812c17.5791015625,0,28.0737304688,10.9833984375,28.0737304688,29.380859375v299.248046875ZM809.4169921875,185.4501953125h173.6083984375v113.7978515625c0,12.8603515625,5.9428710938,19.380859375,17.6630859375,19.380859375h18.8955078125V29.380859375c0-13.041015625-5.912109375-19.380859375-18.0737304688-19.380859375h-18.4848632812v143.6337890625h-173.6083984375V29.380859375c0-12.8603515625-5.9428710938-19.380859375-17.6630859375-19.380859375h-18.8955078125v289.248046875c0,12.8603515625,5.4028320312,19.380859375,16.0581054688,19.380859375h20.5004882812v-133.1787109375Z"/>
      </g>
    </g>
  </g>
</svg>