<svg xmlns="http://www.w3.org/2000/svg" viewBox="0 0 500 500"><defs><style>.cls-1{fill:#fff;stroke-width:0}</style></defs><rect width="500" height="500" rx="75" ry="75" style="fill:#4c7380;stroke-width:0" id="Layer_1" data-name="Layer 1"/><g id="Layer_2" data-name="Layer 2"><path class="cls-1" d="M397.86 329.8c-4.9 0-9.7-2.44-12.5-6.9-22.77-36.13-50.31-62.74-81.87-79.1-26.62-13.8-50.93-17.93-74.44-21.92-29.08-4.94-59.15-10.05-88.28-33.76-24.21-19.7-41.94-47.18-52.71-81.68-2.43-7.78 1.91-16.06 9.69-18.49 7.78-2.43 16.06 1.91 18.49 9.69 9.01 28.86 23.53 51.6 43.16 67.58 23.11 18.81 46.97 22.86 74.59 27.55 24.55 4.17 52.37 8.89 83.08 24.82 36.28 18.81 67.66 48.94 93.26 89.57 4.35 6.9 2.28 16.01-4.62 20.36a14.702 14.702 0 0 1-7.86 2.28Z"/><path class="cls-1" d="M300.27 439.04c-3.46 0-6.94-1.21-9.74-3.68-37.66-33.1-58.82-68.71-62.9-105.83-2.99-27.25 3.72-49.95 10.2-71.89 7.1-24.01 14.44-48.84 10.48-82.86-2.02-17.34-6.64-34.53-13.76-51.1-3.22-7.49.25-16.17 7.74-19.39 7.49-3.22 16.17.25 19.39 7.74 8.24 19.19 13.61 39.16 15.96 59.34 4.65 40.02-3.93 69.04-11.5 94.65-6.18 20.9-11.51 38.95-9.17 60.3 3.25 29.56 21.09 58.8 53.04 86.88 6.12 5.38 6.72 14.71 1.34 20.84-2.92 3.32-7 5.02-11.09 5.02Z"/><path class="cls-1" transform="rotate(-25.63 290.855 269.717)" d="M239.52 259.2h102.76v21.09H239.52z"/><path class="cls-1" transform="rotate(-26.66 312.505 315.011)" d="M245.42 304.49h134.3v21.09h-134.3z"/><path class="cls-1" transform="rotate(-24.11 221.119 167.764)" d="M172.05 157.22h98.18v21.09h-98.18z"/></g></svg>