<?xml version="1.0" encoding="UTF-8"?>
<svg id="Layer_2" data-name="Layer 2" xmlns="http://www.w3.org/2000/svg" viewBox="0 0 771.0430280575 833.9295213377">
  <defs>
    <style>
      .cls-1 {
        fill: #000;
        stroke-width: 0px;
      }
    </style>
  </defs>
  <g id="Logo">
    <g id="Layer_1-2" data-name="Layer 1">
      <path class="cls-1" d="M736.0713854818,574.9510057127c-11.6240234375,0-22.990234375-5.78515625-29.64453125-16.3466796875-53.9716796875-85.654296875-119.271484375-148.7465820312-194.087890625-187.5244140625-63.1142578125-32.7138671875-120.7446289062-42.501953125-176.4780273438-51.9682617188-68.9379882812-11.708984375-140.22265625-23.8168945312-209.2993164062-80.037109375C69.169530013,192.3645799315,27.1260729818,127.2161424315,1.599217513,45.4383104002-4.160548112,26.9861619627,6.128514388,7.3587205565,24.5806628255,1.5989549315c18.4521484375-5.7592773438,38.0795898438,4.5302734375,43.8388671875,22.9809570312,21.3583984375,68.423828125,55.787109375,122.32421875,102.3286132812,160.2036132812,54.7822265625,44.5854492188,111.3427734375,54.1923828125,176.8344726562,65.31640625,58.1909179688,9.8837890625,124.1459960938,21.0859375,196.9692382812,58.83203125,86.0146484375,44.5825195312,160.40234375,116.029296875,221.0986328125,212.3559570312,10.3046875,16.353515625,5.400390625,37.96484375-10.9541015625,48.26953125-5.79296875,3.6513671875-12.2490234375,5.3935546875-18.625,5.3935546875Z"/>
      <path class="cls-1" d="M504.6895495443,833.9295213377c-8.20703125,0-16.4462890625-2.8681640625-23.0947265625-8.712890625-89.2788085938-78.4814453125-139.4497070312-162.8974609375-149.1176757812-250.9013671875-7.0981445312-64.609375,8.8081054688-118.412109375,24.1909179688-170.4438476562,16.8295898438-56.92578125,34.232421875-115.7895507812,24.8559570312-196.4521484375-4.7783203125-41.1103515625-15.7534179688-81.8681640625-32.619140625-121.1416015625-7.6279296875-17.7612304688.5874023438-38.3432617188,18.3486328125-45.970703125,17.7607421875-7.6279296875,38.3427734375.5869140625,45.970703125,18.3486328125,19.5415039062,45.5034179688,32.2700195312,92.8354492188,37.8315429688,140.6811523438,11.0283203125,94.8725585938-9.3134765625,163.6762695312-27.259765625,224.3803710938-14.6479492188,49.5463867188-27.2983398438,92.3364257812-21.7377929688,142.9536132812,7.7001953125,70.08984375,50.0092773438,139.388671875,125.7534179688,205.9716796875,14.517578125,12.76171875,15.94140625,34.876953125,3.1787109375,49.3955078125-6.91796875,7.869140625-16.5869140625,11.8916015625-26.30078125,11.8916015625Z"/>
      <rect class="cls-1" x="360.6736736679" y="407.5680303725" width="243.6235486279" height="50.0000815398" transform="translate(-139.6249702759 251.2231754841) rotate(-25.6261555422)"/>
      <rect class="cls-1" x="374.6687133021" y="514.9467281785" width="318.3859107657" height="49.9997660059" transform="translate(-185.4974770206 296.8971435679) rotate(-26.6561350047)"/>
      <rect class="cls-1" x="200.7296866365" y="165.7923582632" width="232.7534660499" height="49.9999120865" transform="translate(-50.2717380189 146.166337025) rotate(-24.1080409255)"/>
    </g>
  </g>
</svg>